<svg width="27" height="28" viewBox="0 0 27 28" fill="none" xmlns="http://www.w3.org/2000/svg">
<path d="M14.7298 20.5888C16.8313 20.5888 18.5325 19.7888 19.5332 18.6888L25.6374 22.1888C23.1356 25.5888 19.4331 27.3888 14.6298 27.3888C6.02384 27.3888 0.620117 21.5888 0.620117 14.0888C0.620117 6.58882 6.02384 0.788818 14.0294 0.788818C21.4345 0.788818 26.8382 6.48882 26.8382 14.0888C26.8382 15.1888 26.7381 16.1888 26.538 17.0888H8.62564C9.62633 19.6888 11.9279 20.5888 14.7298 20.5888ZM19.333 11.4888C18.5325 8.58882 16.2309 7.48882 13.9293 7.48882C11.0273 7.48882 9.12598 8.88882 8.4255 11.4888H19.333Z" fill="black"/>
</svg>
